<?xml version="1.0" encoding="utf-8"?>
<!-- Generator: Adobe Illustrator 21.1.0, SVG Export Plug-In . SVG Version: 6.00 Build 0)  -->
<svg version="1.1" xmlns="http://www.w3.org/2000/svg" xmlns:xlink="http://www.w3.org/1999/xlink" x="0px" y="0px"
	 viewBox="0 0 203.9 165.2" style="enable-background:new 0 0 203.9 165.2;" xml:space="preserve">
<style type="text/css">
	.st0{fill-rule:evenodd;clip-rule:evenodd;fill:#F5F5F5;}
	.st1{fill:#EC7421;}
	.st2{font-family:'MyriadPro-Semibold';}
	.st3{font-size:16.5746px;}
	.st4{fill:#EB6C31;}
	.st5{fill:#FFFFFF;}
	.st6{display:none;}
	.st7{display:inline;}
	.st8{display:inline;fill-rule:evenodd;clip-rule:evenodd;fill:#F5F5F5;}
	.st9{display:inline;fill:#EC7421;}
</style>
<g id="Layer_1">
	<g>
		<rect x="0" class="st0" width="203.9" height="165.2"/>
		<text transform="matrix(1 0 0 1 59.5781 154.3226)" class="st1 st2 st3">Hakkımızda</text>
		<g>
			<g>
				<g>
					<g>
						<g>
							<polygon class="st4" points="102.4,17.8 57.5,61.9 57.5,123.7 146.4,123.7 146.4,61.9 							"/>
						</g>
						<path class="st5" d="M95.8,96.8l-7.3-7.3c-3-3-6.7-1.9-9.3,0.8c-2.7,2.7-3.8,6.4-0.8,9.4l7.2,7.2c3,3,6.7,1.9,9.3-0.8
							C97.7,103.4,98.8,99.7,95.8,96.8L95.8,96.8z M92.2,103.1c-0.7,0.6-1.5,0.3-2.1-0.3l-7.7-7.7c-0.6-0.6-1-1.4-0.3-2
							c0.7-0.7,1.5-0.3,2.1,0.3l7.7,7.7C92.5,101.7,92.8,102.5,92.2,103.1z M115.4,78.8l3.1,3.1l-2.7,2.7c-2.5,2.5-5,0.7-7.5-1.9
							l-7.5-7.6l-1.4,1.4l-2.9-2.9l1.4-1.4l-4-4l4-4l4,4l1.5-1.5l2.9,2.9l-1.5,1.5l7.1,7.1c1,1,2.1,2,3.1,1L115.4,78.8z M109.2,60.2
							c-2.6,2.6-3.7,6.2-1,9l1.4,1.4l4-4.1l-1.4-1.4c-0.7-0.7-1-1.4-0.3-2.1c0.8-0.8,1.3-0.2,2,0.4c3.1,3.1-3.8,7.6,0.3,11.8
							l2.5,2.6c1.8,1.9,4.5,2.2,6.1,0.5c1.5-1.5,1.9-2.7,1.9-4.1l0.9,0.6l4-4L118,59.2C116,57.1,112.5,56.8,109.2,60.2z M122.2,73.4
							c-0.6,0.6-1.2,0.5-2.1-0.4l-1.9-1.9c-1.3-1.3-0.9-2.3-0.6-3.9l4.1,4.1C122.7,72.3,122.8,72.9,122.2,73.4z M106.6,94.6
							c-3.1,3.1-6.4,3.6-9.4,0.5l-6.9-6.9c-2.6-2.6-2.7-6.3,0.5-9.5c2.7-2.7,6.1-3.9,9.5-0.5l1.2,1.2l-4,3.9l-1.8-1.8
							c-0.6-0.6-1.3-0.9-2.1-0.2c-0.7,0.7-0.3,1.4,0.2,2l8.1,8.1c0.6,0.6,1.3,0.9,2.1,0.2c0.7-0.7,0.3-1.4-0.3-2.1l-2.6-2.6l3.9-4
							l2.3,2.3l0,0C110.4,88.5,109.5,91.7,106.6,94.6z M111.1,91.8l2.9,2.9l-7.4,7.4l-2.9-2.9L111.1,91.8z M77.1,105.4l11.7,6.1
							l-4.3,4.3l-10.7-6.1l0,0l8.4,8.4l-4,4l-19.1-19.1l4-4l9.4,9.4l-3.5-7.5l4-4L77.1,105.4z M136.1,65.1c-2.6,2.6-6,3.1-8.9,0.2
							l-1.3-1.3l3.8-3.8l1.4,1.3c0.9,0.8,1.9,1.1,2.6,0.5c0.6-0.6,0.5-1.5-0.2-2.2c-2.7-2.7-9.6,2.1-13.4-1.7
							c-2.9-2.9-2.3-6.4,0.3-9c3.1-3.1,7-3,9.2-0.8l1.1,1.1l-3.7,3.7l-1.2-1.3c-0.6-0.7-1.6-0.8-2.2-0.1c-0.6,0.6-0.5,1.3,0.2,2
							c1.7,1.7,9.2-2.6,13.4,1.6C140.3,58.6,139.5,61.6,136.1,65.1z M143.9,64.7l-7.4,7.4l-2.9-2.9l7.4-7.4L143.9,64.7z"/>
					</g>
				</g>
			</g>
		</g>
	</g>
</g>
<g id="Layer_2" class="st6">
	<g class="st7">
		<rect x="0" class="st0" width="203.9" height="165.2"/>
		<text transform="matrix(1 0 0 1 76.4606 154.3225)" class="st1 st2 st3">Kariyer</text>
		<g>
			<g>
				<g>
					<g>
						<g>
							<polygon class="st4" points="102.3,18.4 58.2,61.8 58.2,122.7 145.7,122.7 145.7,61.8 							"/>
						</g>
						<g>
							<path class="st5" d="M86.2,90.5l1.7-3c0-0.1,0-0.1,0-0.2c0,0,0,0-0.1-0.1c0,0-0.1,0-0.1,0c-0.3,0-0.7,0-1.1,0
								c-1.4-0.1-2.9-0.5-4.3-1.2c-0.1,0-0.2,0-0.2,0.1c-0.3,0.4-0.8,0.5-1.2,0.3c-0.4-0.2-0.6-0.7-0.4-1.1c0-0.1,0-0.2-0.1-0.2
								c-1.3-0.9-2.5-1.9-3.3-3.1c-0.2-0.3-0.4-0.6-0.6-0.9c0,0,0-0.1-0.1-0.1c0,0,0,0-0.1,0c-0.1,0-0.1,0-0.1,0.1l-1.7,3
								c-0.3,0.5-0.1,1.2,0.4,1.5l9.6,5.3C85.3,91.2,85.9,91,86.2,90.5z"/>
							<path class="st5" d="M80.7,84.8L80.7,84.8c0,0,0.1,0,0.1,0c0,0,0.1,0,0.1-0.1c0.3-0.4,0.8-0.5,1.2-0.3
								c0.4,0.2,0.6,0.7,0.4,1.2c0,0,0,0.1,0,0.1c0,0,0,0.1,0.1,0.1c0,0,0,0,0,0c1.5,0.7,3.1,1.1,4.5,1.1c1.3,0,2.3-0.3,2.6-0.9
								l1.7-3.1c0-0.1,0-0.2-0.1-0.2l-2.8-1.6l0.3-0.5l0.5-0.9c0.2-0.4,0.1-0.8-0.3-1l-0.2-0.1c0.4-0.2,0.7-0.6,0.9-1l2.1-4H95v13.2
								l-1.5,3.4l-5.8,4.3c-0.6,0.4-1,1.1-1.1,1.8c-0.1,0.7,0.1,1.4,0.5,2c0.5,0.7,1.3,1.1,2.2,1.1c0.6,0,1.1-0.2,1.6-0.5l6.3-4.6
								c0.5-0.3,0.8-0.8,1.1-1.3l2.6-5.7h7.9v3.4c0,1.5,1.2,2.7,2.7,2.7c1.5,0,2.7-1.2,2.7-2.7l0-6.2c0-0.7-0.3-1.3-0.8-1.8
								c-0.5-0.5-1.1-0.8-1.8-0.8H106v-8.1h6.3c1,0,1.9-0.5,2.3-1.4l2.9-5.4c0.3-0.6,0.4-1.4,0.2-2.1c-0.2-0.7-0.7-1.3-1.3-1.6
								c-0.4-0.2-0.8-0.3-1.3-0.3c-1,0-1.9,0.6-2.4,1.4l-2.1,4h-6.5l-7.9,0h-6c-1.1,0-2.1,0.6-2.6,1.6L85,75
								c-0.2,0.4-0.3,0.8-0.3,1.2l-1.1-0.6c-0.4-0.2-0.8-0.1-1,0.3L82,76.8l-0.3,0.5l-3-1.7c-0.1,0-0.2,0-0.2,0.1l-1.7,3.1
								c-0.3,0.6-0.1,1.6,0.6,2.7C78.2,82.7,79.3,83.8,80.7,84.8z M83.3,77.5l0.2-0.3l4.2,2.4l-0.2,0.3l-0.3,0.5L83,78L83.3,77.5z"
								/>
							<circle class="st5" cx="100.1" cy="59.8" r="7.1"/>
							<path class="st5" d="M138.2,82.8h-19.3c-0.2,0-0.4,0.2-0.4,0.4V95h-16.7c-0.2,0-0.4,0.2-0.4,0.4v11.8H84.7
								c-0.2,0-0.4,0.2-0.4,0.4v7.7c0,0.2,0.2,0.4,0.4,0.4h3.2c0.2,0,0.4-0.2,0.4-0.4v-4.1H105c0.2,0,0.4-0.2,0.4-0.4V99h16.7
								c0.2,0,0.4-0.2,0.4-0.4V86.8h15.7c0.2,0,0.4-0.2,0.4-0.4v-3.2C138.6,83,138.4,82.8,138.2,82.8z"/>
						</g>
					</g>
				</g>
			</g>
		</g>
	</g>
</g>
<g id="Layer_3" class="st6">
	<g class="st7">
		<rect x="0" class="st0" width="203.9" height="165.2"/>
		<text transform="matrix(1 0 0 1 45.781 154.3226)" class="st1 st2 st3">Medya Merkezi </text>
		<g>
			<g>
				<g>
					<g>
						<g>
							<polygon class="st4" points="102.3,20 59,62.7 59,122.4 144.9,122.4 144.9,62.7 							"/>
						</g>
						<path class="st5" d="M110.9,90.4c0.8-1,0.7-2.6-0.3-3.4c0,0-0.1,0-0.1-0.1c5-5.7,8.8-7.8,8.8-7.8c-5.2-4.2-11.5-2.5-15.9,1.5
							l-0.6-3.3l0.7-0.8c0.3-0.3,0.4-0.9,0.4-1.3l-0.2-2.2c0-0.4-0.3-0.9-0.6-1.2L87.7,59.4c-0.3-0.3-0.9-0.4-1.3-0.4l-2.2,0.2
							c-0.4,0-0.9,0.3-1.2,0.6l-2.3,2.8l-1-4.9l-7,8.5l5,0l-2.3,2.8c-0.3,0.3-0.4,0.9-0.4,1.3l0.2,2.2c0,0.4,0.3,0.9,0.6,1.2
							l15.2,12.4c0.3,0.3,0.9,0.4,1.3,0.4l2.2-0.2c0.4,0,0.9-0.3,1.2-0.6l0.7-0.8l3.3,0c-3,5.1-3.5,11.7,1.7,15.9
							c0,0,1.6-4.3,5.9-10.2c0,0,0,0,0.1,0.1C108.6,91.5,110.1,91.4,110.9,90.4z M112,54.8l-8.9-7.2L92.4,60.7l8.9,7.2L112,54.8z
							 M67.4,91.2l8.9,7.2l10.8-13.2l-8.9-7.2L67.4,91.2z M133.4,89.1c-0.1-0.8-0.1-0.9-0.1-0.9c-0.1-0.8,0.4-1.5,1.3-1.6h0
							c0.8-0.1,1.6,0.5,1.7,1.3c0,0,0,0,0.1,0.7c0.7,8-2.5,16.1-9.1,21.5c-3.9,3.2-8.4,5-13.1,5.5c-0.7,0.1-0.7,0.1-0.7,0.1
							c-0.7,0-1.4-0.6-1.5-1.4l0,0c-0.1-0.8,0.5-1.5,1.3-1.5c0,0,0,0,0.7-0.1c4-0.5,8-2,11.4-4.8C131.1,103.1,133.9,96,133.4,89.1z
							 M121.5,103.2c-2.6,2.1-5.6,3.3-8.7,3.5c-0.6,0.1-0.6,0.1-0.6,0.1c-0.7,0-1.1,0.7-1,1.5l0,0c0.1,0.8,0.8,1.5,1.5,1.5
							c0,0,0,0,0.7-0.1c3.5-0.4,7-1.8,10-4.2c5-4.1,7.4-10.2,6.9-16.2c-0.1-0.8-0.1-0.8-0.1-0.8c-0.1-0.8-0.9-1.4-1.7-1.4l0,0
							c-0.8,0.1-1.4,0.8-1.2,1.6c0,0,0,0,0.1,0.7C127.8,94.5,125.8,99.7,121.5,103.2z M117.7,98.5c-1.6,1.3-3.5,2-5.4,2.2
							c-0.7,0.1-0.7,0.1-0.7,0.1c-0.7,0-1.3,0.6-1.2,1.4l0,0.1c0.1,0.8,0.8,1.5,1.6,1.5c0,0,0,0,0.7-0.1c2.4-0.3,4.8-1.2,6.8-2.9
							c3.4-2.8,5.1-7,4.8-11.1c-0.1-0.8-0.1-0.9-0.1-0.9c-0.2-0.8-1-1.4-1.8-1.3l-0.1,0c-0.8,0.1-1.3,0.7-1.1,1.5c0,0,0,0,0.1,0.7
							C121.7,92.9,120.5,96.3,117.7,98.5z M115.3,89.8c0.4,1.5-0.1,3.1-1.4,4.1c-0.7,0.6-1.6,0.9-2.5,0.9c-0.7,0-1.8,0.4-1.8,1.4
							c0.1,1.4,1.6,1.7,2.4,1.6c1.3-0.1,2.6-0.6,3.7-1.5c1.9-1.5,2.8-3.8,2.6-6.1c-0.1-0.7-0.6-2.3-2.1-2.1
							C115.6,88.1,115.2,89.2,115.3,89.8z"/>
					</g>
				</g>
			</g>
		</g>
	</g>
</g>
<g id="Layer_4" class="st6">
	<g class="st7">
		<rect x="0" y="0.2" class="st0" width="203.9" height="165.2"/>
		<text transform="matrix(1 0 0 1 32.4975 154.5396)" class="st1 st2 st3">Sık Sorulan Sorular </text>
		<g>
			<g>
				<g>
					<g>
						<polygon class="st4" points="102.3,21.6 59.5,63.7 59.5,122.8 144.4,122.8 144.4,63.7 						"/>
					</g>
					<g>
						<path class="st5" d="M95.5,95l-0.1-1.9c-0.2-3.6,1-7.4,4.2-11.2c2.3-2.7,4.1-5,4.1-7.4c0-2.5-1.6-4.1-5.2-4.3
							c-2.4,0-5.2,0.9-7.1,2.1l-2.4-7.8c2.6-1.5,6.9-2.9,11.9-2.9c9.4,0,13.7,5.2,13.7,11.2c0,5.4-3.4,9-6.1,12
							c-2.7,2.9-3.7,5.7-3.7,8.9V95H95.5z M93.7,104.9c0-3.8,2.6-6.5,6.4-6.5c3.9,0,6.4,2.7,6.4,6.5c0,3.7-2.6,6.5-6.4,6.5
							C96.3,111.4,93.7,108.6,93.7,104.9z"/>
					</g>
				</g>
			</g>
		</g>
	</g>
</g>
<g id="Layer_5" class="st6">
	<rect x="-0.4" y="0.2" class="st8" width="203.9" height="165.2"/>
	<text transform="matrix(1 0 0 1 41.4218 154.5397)" class="st9 st2 st3">Tedarikçi İlişkiler</text>
	<g class="st7">
		<g>
			<g>
				<g>
					<g>
						<polygon class="st4" points="101.9,23.8 58.5,66.5 58.5,126.3 144.5,126.3 144.5,66.5 						"/>
					</g>
					<g>
						<polygon class="st5" points="99.8,75.8 81.6,80.5 99.8,86.3 99.8,85.9 						"/>
						<polygon class="st5" points="93.1,101.8 91.9,101.5 75.2,96.2 75.2,113 99.8,120.7 99.8,106 99.8,91.1 93.8,100.8 						"/>
						<polygon class="st5" points="101.8,86.3 120.6,81.6 101.8,75.8 						"/>
						<polygon class="st5" points="109.3,98.8 108.2,99.1 107.6,98.3 101.8,90.7 101.8,105.5 101.8,120.7 126.8,114.5 126.8,94.5 
													"/>
						<polygon class="st5" points="75.3,80.3 75.2,80.3 67.8,92.2 92.4,99.9 99.8,88 99.8,88 75.3,80.3 78.4,79.5 100.8,74 
							123.6,80.8 126.6,81.8 101.8,88 108.9,97.3 133.9,91 126.8,81.7 126.7,81.7 128,80.6 135.2,73.5 109,65.7 100.7,73.8 
							93.7,64.7 68.2,71 74.2,78.8 						"/>
					</g>
				</g>
			</g>
		</g>
	</g>
</g>
<g id="Layer_6" class="st6">
	<rect x="-0.4" y="0" class="st8" width="203.9" height="165.2"/>
	<text transform="matrix(1 0 0 1 42.2587 154.3227)" class="st9 st2 st3">Yatırımcı İlişkiler</text>
	<g class="st7">
		<g>
			<g>
				<g>
					<g>
						<polygon class="st4" points="101.9,25.3 59.4,67.1 59.4,125.6 143.6,125.6 143.6,67.1 						"/>
					</g>
					<g id="_x33_fVLXY.tif_1_">
						<g>
							<path class="st5" d="M108.5,112.9c-3.5,2.5-6.9,0.5-9.9,0.5c0.3-1.4,0.8-2.7,0.7-3.9c-0.1-1.5-1.4-2.3-2.8-2.6
								c0.4-3.4-0.5-4.7-3.9-5.5c0-1.9-0.7-3.5-2.5-4.1c-1.9-0.6-3.6,0-4.7,1.8c-2.4-2.6-4.2-2.8-6.5-0.8c-1.5-2-3.1-4.1-4.7-6.1
								c2.9-4.6,5.8-9.2,8.5-13.5c2.7,0.8,5.2,1.6,7.7,2.3c0,0-0.1,0.3-0.3,0.4c-1,1.3-2,2.6-2.9,3.9c-1.2,1.6-1.3,3.1-0.3,4.3
								c1.1,1.3,2.6,1.5,4.4,0.6c2.8-1.5,5.7-2.9,8.5-4.5c0.9-0.5,1.6-0.5,2.4,0.1c4.1,2.7,8.2,5.4,12.4,8.1c2.5,1.6,5,3.2,7.5,4.8
								c1,0.6,1.4,1.5,1.2,2.6c-0.2,1-0.9,1.7-1.9,1.8c-0.6,0.1-1.3-0.1-1.8-0.4c-3.5-2-7-4.1-10.5-6.2c-0.6-0.4-1.3-0.8-1.7,0
								c-0.1,0.3,0.3,1.2,0.7,1.4c2.9,1.8,5.8,3.5,8.7,5.2c1.5,0.9,1.9,1.7,1.3,2.7c-0.6,1.1-2.1,1.7-3.4,1.1c-1-0.4-2-1-2.9-1.5
								c-1.8-1-3.5-1.9-5.3-2.9c-0.6-0.3-1.4-1-1.9,0c-0.5,1,0.5,1.2,1.1,1.6c2.1,1.2,4.3,2.4,6.4,3.6c1.3,0.8,1.6,1.5,1.2,2.4
								c-0.6,1.2-1.9,1.8-3.1,1.3c-1.3-0.5-2.5-1.2-3.7-1.8c-1.1-0.5-2.1-1.1-3.2-1.6c-0.4-0.1-0.9,0.1-1.3,0.2
								c0.2,0.4,0.2,1.1,0.6,1.3c1.5,0.9,3.1,1.6,4.6,2.4C107.6,112.4,108,112.6,108.5,112.9z"/>
							<path class="st5" d="M120.2,78.1c3.1,4.9,6.1,9.6,9.1,14.5c-1,0.9-1.9,1.9-2.9,2.8c-0.2,0.2-0.4,0.3-0.6,0.5
								c-2.1,2-2.1,1.9-4.6,0.3c-6.1-4-12.2-8-18.4-12c-1.2-0.8-2.4-0.8-3.7-0.1c-2.8,1.5-5.7,3-8.5,4.4c-0.8,0.4-1.7,1-2.4,0
								c-0.7-0.9-0.1-1.6,0.4-2.3c1.2-1.5,2.4-3,3.5-4.6c1.1-1.5,2.5-2.5,4.4-2.7c2.1-0.3,4.1-0.7,6.2-1.1c3.8-0.6,7.4,0.2,11,1.1
								c2,0.5,3.8,0.6,5.6-0.4C119.6,78.3,119.8,78.2,120.2,78.1z"/>
							<path class="st5" d="M120.2,74.8c2.4-1.6,4.8-3.1,7.3-4.7c3.8,6.1,7.7,12.1,11.5,18.3c-2.4,1.5-4.8,3.1-7.3,4.7
								C127.8,86.9,124,80.9,120.2,74.8z"/>
							<path class="st5" d="M71.2,93.6c-2.5-1.6-4.8-3-7.2-4.5c3.8-6.1,7.7-12.1,11.5-18.3c2.4,1.5,4.8,3,7.2,4.5
								C78.9,81.4,75.1,87.4,71.2,93.6z"/>
							<path class="st5" d="M83.8,110.6c-1.9,0-2.9-1.7-2-3.1c1.7-2.7,3.6-5.3,5.4-7.9c0.6-0.9,1.8-1,2.6-0.4
								c0.9,0.6,1.3,1.8,0.7,2.7c-1.8,2.7-3.6,5.3-5.5,8C84.7,110.2,84.1,110.4,83.8,110.6z"/>
							<path class="st5" d="M89.2,113.1c-1.9-0.1-2.9-1.7-2.1-3c1.3-2.1,2.7-4.1,4.1-6c0.6-0.9,1.9-1,2.7-0.4
								c0.9,0.6,1.2,1.8,0.6,2.7c-1.3,2-2.7,4-4.1,5.9C90.1,112.7,89.4,112.9,89.2,113.1z"/>
							<path class="st5" d="M84,100.5c-0.3,0.7-0.4,1.2-0.7,1.6c-0.7,1.1-1.5,2.2-2.3,3.3c-0.8,1.1-1.9,1.3-2.9,0.6
								c-0.9-0.6-1.2-1.8-0.5-2.8c0.8-1.2,1.6-2.4,2.5-3.6c0.6-0.8,1.5-1,2.3-0.6C83.1,99.3,83.5,100,84,100.5z"/>
							<path class="st5" d="M94.3,114.7c-1.4,0-2.2-1.3-1.6-2.4c0.6-1.1,1.4-2.2,2.2-3.2c0.5-0.7,1.3-0.7,2-0.3
								c0.7,0.5,1.1,1.2,0.6,2c-0.7,1.1-1.5,2.2-2.3,3.3C95,114.4,94.5,114.5,94.3,114.7z"/>
						</g>
					</g>
				</g>
			</g>
		</g>
	</g>
	<rect x="-0.4" y="0.2" class="st8" width="203.9" height="165.2"/>
	<text transform="matrix(1 0 0 1 55.7756 154.5397)" class="st9 st2 st3">Kampanyalar</text>
	<g class="st7">
		<g>
			<g>
				<g>
					<g>
						<polygon class="st4" points="103.6,29.8 63,69.8 63,125.9 143.6,125.9 143.6,69.8 						"/>
					</g>
					<path class="st5" d="M109.6,70.2h-1.4V109h1.4V95l4.3-1.4c0.8-0.3,1.5-1.2,1.5-2v-4c0-0.9-0.7-1.8-1.5-2l-4.3-1.4V70.2z
						 M86,98.8h-8.6l4.4,8.2l4.8,8.9c0,0,0.5,0.9,1.3,0.7c0.4-0.1,0.9-0.2,1.6-0.3c2.5-0.5,1.6-2.7,1.6-2.7l-2.4-7.1L86,98.8z
						 M88.3,82.6v14c11.6,0.1,18.3,12.4,18.3,12.4h0.3V70.2h-0.3C106.6,70.2,99.8,82.5,88.3,82.6z M74.6,96V83.2
						c-1.1,0-3.7,2.3-3.7,6.4C70.9,93.7,73.3,96,74.6,96z M86.8,97.3H76.1V82h10.7V97.3z M132.1,86.1c-0.7-3.5-2.4-6.5-4.8-8.7
						c-0.5-0.5-0.5-0.5-0.5-0.5c-0.6-0.5-0.5-1.3,0.1-1.9l0,0c0.6-0.6,1.6-0.7,2.2-0.2c0,0,0,0,0.5,0.5c2.7,2.7,4.7,6.2,5.5,10.2
						c1.4,6.8-0.7,13.5-5.1,18.1c-0.6,0.6-0.6,0.6-0.6,0.6c-0.7,0.6-1.7,0.6-2.4,0l0,0c-0.6-0.6-0.6-1.6,0-2.1c0,0,0,0,0.5-0.6
						C131.4,97.5,133.3,91.8,132.1,86.1z M125.8,87.4c-0.5-2.2-1.5-4-3-5.5c-0.5-0.5-0.5-0.5-0.5-0.5c-0.6-0.5-0.7-1.3,0-2l0.1,0
						c0.6-0.6,1.7-0.7,2.3-0.2c0,0,0,0,0.5,0.5c1.8,1.8,3.2,4.2,3.8,7c1,4.6-0.5,9.2-3.5,12.4c-0.6,0.6-0.7,0.7-0.7,0.7
						c-0.7,0.6-1.8,0.5-2.4-0.1l0,0c-0.6-0.6-0.6-1.5,0-2c0,0,0,0,0.5-0.5C125.4,94.7,126.6,91,125.8,87.4z M117.9,93
						c1.3-1,2-2.6,1.6-4.3c-0.2-1-0.7-1.8-1.4-2.4c-0.6-0.5-1.2-1.6-0.6-2.3c1-1.1,2.5-0.3,3.1,0.3c1,1,1.8,2.3,2.1,3.8
						c0.5,2.5-0.3,5-2,6.8c-0.6,0.6-2,1.5-3.1,0.3C117.1,94.6,117.4,93.4,117.9,93z"/>
				</g>
			</g>
		</g>
	</g>
	<rect x="-0.4" y="0" class="st8" width="203.9" height="165.2"/>
	<text transform="matrix(1 0 0 1 75.2841 154.3227)" class="st9 st2 st3">İletişim</text>
	<g class="st7">
		<g>
			<g>
				<g>
					<g>
						<polygon class="st4" points="104.4,30.6 64.2,70.2 64.2,125.6 144,125.6 144,70.2 						"/>
					</g>
					<g id="nq4uaw.tif_1_">
						<g>
							<path class="st5" d="M130.2,102.2c-0.1,6.7-4,9.4-9.9,8.6c-9-1.1-16.8-4.9-23.4-11.1c-3.8-3.6-7.3-7.4-10.1-11.9
								c-2.8-4.5-5.2-9.3-5-14.9c0.1-2.9,0.8-5.6,2.6-7.9c1.9-2.4,4.5-2.6,7.3-2.5c0.3,0,0.8,0.5,0.9,0.8c1.6,3.8,3.1,7.6,4.7,11.4
								c0.4,1,0.3,1.8-0.4,2.6c-0.7,0.7-1.4,1.6-2.1,2.3c-1.8,1.9-1.9,2.9-0.4,5c3.6,5.3,8,9.8,13.6,13.1c1.8,1.1,2.7,1,4.2-0.4
								c3.5-3.3,3.5-3.3,8-1.4c2.9,1.2,5.8,2.5,8.7,3.6C130.2,100.2,130.2,101.2,130.2,102.2z"/>
						</g>
					</g>
				</g>
			</g>
		</g>
	</g>
</g>
</svg>
